<?xml version="1.0" encoding="utf-8"?>
<!-- Generator: Adobe Illustrator 25.2.0, SVG Export Plug-In . SVG Version: 6.00 Build 0)  -->
<svg version="1.1" id="Camada_1" xmlns="http://www.w3.org/2000/svg" xmlns:xlink="http://www.w3.org/1999/xlink" x="0px" y="0px"
	 viewBox="0 0 284.6 151.9" style="enable-background:new 0 0 284.6 151.9;" xml:space="preserve">
<style type="text/css">
	.st0{display:none;}
	.st1{fill:#002F86;}
	.st2{fill:#77251D;}
</style>
<g id="Camada_1_1_" class="st0">
	
		<image style="display:inline;overflow:visible;enable-background:new    ;" width="500" height="379" xlink:href="5153112.jpeg"  transform="matrix(0.48 0 0 0.48 21.263 9.04)">
	</image>
</g>
<g id="Camada_2_1_">
	<g>
		<path class="st1" d="M49.1,109.6c1.1,1.5,3,2.2,4.7,2.8c11.4,3.6,23.6,4.5,35.4,5.3c13.4,0.9,27.3,1.9,40.9,2.2
			c7.4,0.1,15.3,0.1,24.2-0.2c15.3-0.4,30.8-1.4,46.1-2.9c1.6-0.2,3.2-0.3,4.8-0.4c4.5-0.4,8.8-0.8,13.3-1.4
			c2.9-0.4,5.8-0.8,8.7-1.4c3-0.7,5.9-1.5,8.3-2.3c1.6-0.5,3.2-1.1,4.1-2.3c0.5-0.7,0.7-1.6,0.5-2.4c-0.1-0.4-0.4-0.9-0.9-1.2
			l0.2-0.4l-9.7-33.8c-0.8-2.9-1.8-6.2-3.9-8.5c-2.5-2.8-6.5-4-9.7-4.9l-8.1-2.3c0.1,0.3,0.3,0.6,0.4,0.9c0.4,1.3,0.1,2.8-0.7,3.9
			c-1.1,1.5-3,2.5-5.8,3c-2.4,0.4-4.6,0.7-6.9,1.1c-2.4,0.4-5,0.7-7.6,1.2c-1.5,0.2-3.2,0.3-4.9,0.3c-1.3,0-2.5,0.1-3.6,0.2
			c-0.9,0.1-1.7,0.2-2.5,0.3c-3.7,0.5-7.5,0.9-11.3,1c-6.3,0.2-12.7,0.3-19,0.3c-0.3,0.1-0.6,0.2-0.9,0.2c-0.4,0-0.9-0.1-1.1-0.2
			l-0.2,0c-14.7,0-29.4-0.5-44-1.4c-7.3-0.4-14.3-1.2-19.9-4.8l-0.2-0.1l-0.1-0.2c-0.3-1.1,0.4-2,1-2.8c0.1-0.2,0.3-0.3,0.4-0.5
			c0.3-0.4,0.4-1.2,0.2-1.6c-0.1-0.2-0.2-0.2-0.3-0.2l0-0.2c-5.1,0.2-10.2,1.4-14.8,3.7c-1.4,0.7-3.2,1.7-4.5,3.2
			c-1.6,2-2.2,4.6-2.8,7l-8,34.8l-0.3,0.1c-0.2,0-0.3,0.1-0.5,0.1l0.2,0.5c-0.7,0.3-1.1,0.9-1.2,1.4
			C48.4,107.7,48.6,108.8,49.1,109.6z"/>
		<path class="st1" d="M247.1,107.3c-2.1-1.2-4.6-1.7-6.7-2c0.2,0.3,0.4,0.7,0.5,1.1c0.3,1.1,0,2.4-0.6,3.3
			c-1.1,1.4-2.8,2.1-4.5,2.7c-2.4,0.8-5.3,1.7-8.4,2.4c-2.9,0.6-5.9,1-8.8,1.4c-4.5,0.6-8.8,1-13.4,1.4c-1.6,0.1-3.2,0.3-4.8,0.4
			c-15.3,1.5-30.8,2.4-46.1,2.9c-5.8,0.2-11.1,0.2-16.2,0.2c-2.8,0-5.4,0-8.1-0.1c-13.7-0.3-27.5-1.2-40.9-2.2
			c-11.8-0.8-24.1-1.7-35.6-5.3c-1.9-0.6-4-1.4-5.2-3.2c-0.7-1-1-2.5-0.6-3.8c0.2-0.6,0.5-1.1,0.9-1.4c-0.3,0-0.5,0.1-0.8,0.1
			c-2.1,0.3-4,0.6-5.8,1.6c-1.3,0.7-2.5,1.6-3.7,2.6c-0.4,0.3-0.8,0.8-1,1.2c-0.8,1.9-0.1,4.5,1.5,5.7c2,1.5,4.1,2.3,6.3,3.1
			c1.1,0.4,2.2,0.8,3.3,1.3c14.8,6.7,108.7,10,127.7,6.9l0.1,0.5l0-0.5c3.2-0.2,6.4-0.3,9.6-0.4c18.8-0.8,38.3-1.6,56.5-6.9
			c5.5-1.6,8.4-4,8.6-7.1C251,110.6,249.1,108.4,247.1,107.3z"/>
		<path class="st2" d="M120.3,45.8c-0.4,0.3-1,0.4-1.4,0.4c0,0.2-0.1,0.4-0.2,0.6c0.1,0.2,0.2,0.4,0.4,0.6c1.6,2.3,3.8,3.8,6.1,4.1
			c2.6,0.4,5.2-0.8,6.3-2.8c0,0,0,0,0,0l-0.3-0.6l0.5,0.1c0.4-1,0.4-2.1,0-3.2c-0.2-0.7-0.7-1.3-1.2-1.8c-1.1,1-2.9,1.2-5.1,0.8
			c-0.3-0.1-0.7-0.1-1-0.2c-1.2-0.3-2.3-0.5-3.4-0.4C121.4,44.3,121.2,45.3,120.3,45.8z"/>
		<path class="st2" d="M133.7,41.5c1.2-0.1,2.4-0.2,3.6-0.1c2.1,0.1,3.9,0.6,5.3,1.4c0-1.4,0.5-2.7,1.3-3.6c0.2-0.2,0.4-0.4,0.7-0.6
			c-0.2,0-0.4,0.1-0.6,0.1c-0.8,0-1.6-0.1-2.4-0.3l-0.2,0.2c-0.2-0.1-0.4-0.3-0.5-0.5c-0.5-0.2-1-0.3-1.5-0.5
			c-0.3-0.1-0.6-0.2-1-0.4c-1.6-0.6-2.9-0.7-4.1-0.5c-0.2,0-0.3,0.1-0.5,0.1l0,0.1c-0.1,0-0.1,0-0.2,0c-0.1,0-0.2,0-0.2,0
			c-0.7,0.2-1.3,0.5-1.4,0.8c-0.1,0.2,0.1,0.4,0.3,0.6l-0.3,0.3c0.1,0.5,0.2,0.9,0.2,1.4c0,0.5-0.1,1-0.3,1.5
			C132.4,41.6,133.1,41.6,133.7,41.5z"/>
		<path class="st2" d="M160.9,51.3c-0.7-0.2-1.3-0.5-1.8-0.8c-0.5-0.3-1-0.5-1.5-0.7c-0.6-0.2-1.4-0.2-2,0.1
			c-0.4,0.3-0.9,0.5-1.4,0.8c-0.5,0.5-0.9,1-1.1,1.7c-0.1,0.3-0.1,0.6,0,0.8c0.1,0.3,0.4,0.5,0.8,0.8c1.7,1.2,3.2,2.8,4.4,4.5
			l0.1-0.3c2.5,1,5.6-0.1,7-2.4l0.5,0.3c-1.5-1.4-2.6-3.3-3.2-4.8C162.2,51.4,161.5,51.5,160.9,51.3z"/>
		<path class="st2" d="M133.1,59.4c0.2,0,0.4-0.1,0.5-0.2l1-0.8c0.7-0.6,1.6-1,2.6-1.2c0.5-0.5,0.8-1.1,1-1.7c0.3-1.1,0-2.4-0.7-3.5
			c-2.6-0.2-4.3-1-5.3-2.3c-1.4,2.1-4.2,3.2-7,2.8c-0.7-0.1-1.4-0.3-2.1-0.6l0,0.7c0,1-0.3,2.1-0.8,3c0,0.1,0,0.2,0.1,0.3
			c0.3,1.5,1.4,2.9,2.7,3.5c1.2,0.6,2.7,0.9,4.5,0.7c0-0.1,0.1-0.1,0.1-0.2l0.9-1.5l0,1.6C131.4,59.9,132.2,59.7,133.1,59.4z"/>
		<path class="st2" d="M132.8,44.7c0.4,1.2,0.4,2.5,0.1,3.7c1.9,0.4,3.4,1.1,4.5,2.2c0.2,0.2,0.4,0.4,0.6,0.6c0.6,0,1.2,0,1.8,0
			c1.2,0,2.3-0.1,3.1-0.6c0.7-0.4,1.2-1.2,1.3-2.2c0-0.2,0-0.4,0-0.6c-0.8-1-1.3-2.1-1.6-3.1c0-0.2-0.1-0.3-0.1-0.5
			c-1.7-1.4-4-1.7-5.4-1.7c-1.1,0-2.3,0-3.4,0.1c-0.7,0-1.4,0.1-2.2,0.1C132.1,43.2,132.6,43.9,132.8,44.7z"/>
		<path class="st2" d="M110.1,52.8c-0.3,0-0.6-0.1-0.8-0.3c-0.3,0-0.6,0-0.9,0c-0.3,0.4-0.7,1.1-0.6,1.9c0.2,1.5,1.7,2.6,2.9,3.2
			c0.3,0.2,0.7,0.3,1,0.5c1.2,0.6,2.5,1.1,3.4,2.2c0.5,0.5,0.8,1.3,1,2c0.2-0.1,0.4-0.2,0.6-0.3c0.9-0.3,1.8-0.4,2.7-0.4
			c0.3,0,0.7,0,1,0c1.1,0,2.5,0.1,3.6,0.7c0.9,0.5,1.7,1.6,1.7,2.7c1.5-0.5,2.8-1.7,3.4-3.2c0-0.2,0-0.4,0-0.6
			c-1.8,0.1-3.4-0.2-4.7-0.8c-1.4-0.7-2.6-2.1-3.1-3.7c-0.6,0.7-1.3,1.2-2.2,1.5l-0.7,0.3l0.1-0.8c0.1-1.8-0.6-3.6-2-5
			c-1.4-1.4-3.2-2.1-5-2c-0.2,0-0.5,0.1-0.8,0.1c-0.1,0.1-0.2,0.2-0.4,0.2c-0.2,0.2-0.4,0.3-0.5,0.4c0.1,0,0.3,0,0.4,0l0.5,0
			l-0.1,0.5C110.9,52.5,110.6,52.8,110.1,52.8z"/>
		<path class="st2" d="M142.6,59.5c0.4,0.4,0.7,0.8,1.1,1.1c1.1,0.7,2.7,0.3,3.7-0.5c1.1-0.9,1.9-2.3,2.5-3.6
			c0.5-0.9,0.9-1.8,0.6-2.6c-0.2-0.7-0.8-1.2-1.5-1.7l-4-3c-0.3,0.9-0.9,1.7-1.6,2.2c-1.1,0.7-2.5,0.7-3.6,0.8c-0.4,0-0.8,0-1.2,0
			c0.6,1.2,0.8,2.5,0.5,3.7c-0.1,0.5-0.4,0.9-0.6,1.4c1.2,0.1,2.5,0.6,3.4,1.5C142.1,58.9,142.4,59.2,142.6,59.5z"/>
		<path class="st2" d="M163.6,50.8c0.8,2,2.3,4.6,4.9,5.8c2.1,1,5.2,0.8,6.6-1.3c0.5-1.9-0.7-4.1-2.5-4.7c-1.1-0.4-2.2-0.2-3.5-0.1
			c-0.4,0-0.8,0.1-1.2,0.1c-1.6,0.1-2.9-0.2-3.8-0.8c-0.1,0.3-0.3,0.6-0.5,0.9C163.6,50.7,163.6,50.7,163.6,50.8z"/>
		<path class="st2" d="M133.3,49.5c0.7,0.7,1.7,1.2,3.1,1.5C135.6,50.3,134.5,49.8,133.3,49.5z"/>
		<path class="st2" d="M153.6,49.8c0.2-0.2,0.5-0.4,0.7-0.5c0.2-0.1,0.5-0.2,0.8-0.3c1.3-0.9,2.4-2.2,2.9-3.7l-2.2-4.5
			c-0.3-0.6-0.6-1.1-1.1-1.4c-0.3-0.2-0.7-0.2-1.1-0.2c-0.1,0-0.1,0-0.1,0l-6.6,0c0,0.2-0.1,0.3-0.2,0.5l-0.7-0.5l0,0
			c-0.3,0-0.6,0-0.9,0.1c-0.2,0.1-0.4,0.2-0.7,0.5c-0.8,0.9-1.2,2.3-1,3.7c0.2,0.2,0.4,0.4,0.6,0.6c0.7,0.9,1.1,2,1.2,3.2
			c0.3,0.4,0.6,0.7,0.9,1.1c0.5,0.5,1.1,1.1,1.9,1.5c0.6,0.3,1.4,0.5,2.2,0.5C151.5,50.5,152.6,50.2,153.6,49.8z"/>
		<path class="st2" d="M141.2,59.4c-0.9-0.9-2.3-1.3-3.6-1.2c-0.1,0.1-0.1,0.1-0.2,0.2c1.4,0.2,2.8,0.6,4,1.3
			C141.4,59.6,141.3,59.5,141.2,59.4z"/>
		<path class="st2" d="M118.1,47.7c-0.5,0.3-1.1,0.5-1.6,0.6l-0.1,0c-1.2,0.3-2.4,0.8-3.6,1.4c1.7,0.2,3.3,1,4.6,2.2
			c1.4,1.4,2.2,3.2,2.3,4.9c0.6-0.4,1.2-0.9,1.6-1.5c-0.1-1.2,0.2-2.2,0.9-3l0.5-0.6c-1.6-0.8-3.1-2.1-4.3-3.7
			C118.3,47.9,118.2,47.8,118.1,47.7z"/>
		<path class="st2" d="M182.2,57.2c-0.2-0.4-0.5-0.9-0.8-1.2c-0.9-1-2.5-1-4-0.9l0-0.6c-0.1,0-0.3,0-0.4,0c-0.3,0-0.5-0.2-0.8-0.3
			c0,0.5,0,0.9-0.2,1.4l-0.1,0.1c-1,1.5-2.6,2.2-4.3,2.4l0.1,0c-0.4,0.8-0.1,1.9,0.6,2.4l-0.3,0.5c1.3-0.2,2.4-0.3,3.4-0.3
			c3.1-0.1,5.5,0.5,7.5,1.8c0,0,0,0,0,0c0.2-0.8,0.6-1.5,1-2.2L182.2,57.2z"/>
		<path class="st2" d="M138.9,66.6l-4.5-1c-1.2-0.3-2.7-0.6-3.8-1.5c-0.3-0.3-0.6-0.6-0.9-1c-0.9,1.6-2.5,2.8-4.4,3l-0.8,0.1
			l0.3-0.8c0.3-0.8-0.3-1.8-1.1-2.3c-0.9-0.5-2.1-0.5-3.1-0.6c-1.1,0-2.3-0.1-3.4,0.3c-0.3,0.1-0.7,0.3-0.9,0.5c0,0,0,0,0,0
			c-0.1,0.8-0.5,1.5-1.2,2l-0.8,0.5l0.1-1c0.1-0.8,0.4-1.5,1-2c0-0.7-0.3-1.5-0.8-2c-0.8-0.9-1.9-1.4-3.1-1.9
			c-0.4-0.2-0.7-0.3-1.1-0.5c-0.4-0.2-0.8-0.4-1.1-0.7l-3.8,1c-0.7,0.2-1.7,0.4-2.6,0c-0.3-0.1-0.5-0.3-0.7-0.5
			c-0.1-0.1-0.3-0.2-0.4-0.3h-0.7c0,0,0-0.1,0-0.1c-0.7,0.1-1.7,0.7-2.3,1c-0.3,0.2-0.5,0.3-0.7,0.4c-0.2,0.1-0.4,0.2-0.6,0.2
			c-0.5,0.2-1,0.4-1.1,0.7c-0.2,0.5-0.1,1.2,0.1,1.6c0.3,0.3,0.8,0.5,1.3,0.7c0.3,0.1,0.6,0.2,0.8,0.3c0.7,0.3,1.2,1,1.3,1.7
			c0,0.2,0,0.5-0.1,0.7C112.7,66.1,125.8,66.5,138.9,66.6z"/>
		<path class="st2" d="M99.1,54.6c-3.5-1-7.3-0.7-10.6,0.9c-0.1,0.7-0.1,1.4,0.2,1.9c0.1,0.3,0.3,0.5,0.7,0.7
			c1.9,1.1,4.2,1.8,5.8,2.2c0-0.1,0-0.2,0.1-0.3c0.3-0.7,1.1-1,1.7-1.3c0.2-0.1,0.3-0.1,0.5-0.2c0.2-0.1,0.4-0.2,0.6-0.3
			c0.8-0.5,1.8-1.1,2.8-1.2c0-0.4-0.1-0.8-0.2-1.1c-0.2-0.5-0.7-1.1-1.3-1.2v0C99.2,54.7,99.2,54.7,99.1,54.6z"/>
		<path class="st2" d="M145.6,66.6C145.6,66.6,145.6,66.6,145.6,66.6c0.5-0.4,0.2-1.4-0.2-2.2c-2-3.1-5.6-5-9.2-5.2
			c-0.8,0.4-1.7,0.8-2.7,1.1c-1,0.3-2,0.5-2.9,0.7c0,0.3-0.1,0.5-0.2,0.8c0.1,0.6,0.5,1.1,0.9,1.5c0.9,0.8,2.2,1.1,3.4,1.3l9,2
			C144.3,66.6,145,66.6,145.6,66.6z"/>
		<path class="st2" d="M200.7,55c0.7,0.8,1.1,2.1,0.9,3.3c-0.1,0.8-0.3,1.5-0.5,2.2c-0.2,0.7-0.3,1.3-0.4,1.9c0.3,0,0.5-0.1,0.8-0.1
			c2.5-0.4,4.2-1.2,5.2-2.6c0.6-0.8,0.8-2,0.6-3c-0.2-0.8-0.7-1.3-1.3-1.6l0-0.1l-0.5-0.2l0.1-0.3c-0.3-0.1-0.7-0.2-1.2-0.3
			c-0.9-0.2-2-0.5-3-1c-0.2,0.6-0.8,1-1.7,1.1C200.1,54.4,200.4,54.6,200.7,55z"/>
		<path class="st2" d="M90.3,50.1c-1.1,1.5-1.7,2.7-1.8,3.8l0.4,0.4c3.3-1.3,7.1-1.6,10.5-0.6c0.2,0.1,0.5,0.1,0.6,0.1
			c0.2-0.1,0.3-0.4,0.3-0.6c0.2-0.8,0.5-1.7,0.3-2.5c-0.1-0.3-0.3-0.7-0.6-0.9c-0.1,0.1-0.2,0.2-0.3,0.3c-1.3,1-3.1,1-4.2,0
			c-0.3-0.3-0.5-0.6-0.7-0.9c-0.2-0.3-0.4-0.6-0.6-0.8c-0.3-0.3-0.7-0.4-1-0.4c-0.4,0-0.8,0.1-1.1,0.3
			C91.4,48.7,90.8,49.4,90.3,50.1z"/>
		<path class="st2" d="M178.4,43.3l-0.2-0.1l0.1,0c-0.1,0-0.1-0.1-0.2-0.1l-0.2,0.2c-0.5,0.7-1.1,1.3-1.8,1.9
			c-0.5,0.8-0.9,1.8-1,2.8c-0.3,1.9,0.2,3.8,1.4,5.1c0.3,0.3,0.5,0.5,0.7,0.5c0.3,0,0.6-0.2,1-0.4c1.4-0.9,2.7-2,3.9-3.3
			c0.8-0.9,1.9-2.2,1.9-3.7c0-0.7-0.3-1.5-0.8-2c-0.3-0.3-0.7-0.6-1.3-0.6c-0.2,0-0.5,0.1-0.7,0.1c-0.3,0.1-0.6,0.1-0.9,0.2
			C179.5,43.9,178.9,43.7,178.4,43.3z"/>
		<path class="st2" d="M102.1,49.6l0.3,0.2c1.6,1.1,3.6,1.5,5.5,1.6c0.7-0.7,1.6-1.2,2.6-1.5c1.7-1.1,3.6-2,5.6-2.5l0.1,0
			c0.5-0.1,0.9-0.2,1.3-0.5c0,0,0.1-0.1,0.1-0.1c-0.1-0.1-0.1-0.3-0.1-0.4c0-0.1,0-0.1,0-0.2c-1.7-0.2-3.4-1-4.9-1.8
			c-1.3-0.6-2.6-1.4-3.5-2.5l-0.1,0.6c-2.4-0.2-5,0.7-6.7,2.5l-0.1-0.1c0,0.4-0.1,0.8-0.3,1.2l-0.3,0.7l-0.3-0.3
			c0,0.8-0.2,1.6-0.6,2.3C101.3,49,101.7,49.3,102.1,49.6z"/>
		<path class="st2" d="M194.7,49.5l-0.1-0.3c-3.9-0.1-7.8,0.3-11.7,1.1l0,0c-0.1,0.1-0.2,0.2-0.3,0.3c-1.2,1.3-2.6,2.5-4,3.4
			c0,0-0.1,0-0.1,0.1c1.3,0,2.7,0.2,3.6,1.2c0.4,0.4,0.7,1,1,1.4l1.5,2.8c0.3-0.4,0.7-0.7,1.1-1c1-0.7,2.1-1.2,3.3-1.3l-0.8-0.4
			c0.6-1,1.3-2.3,2.3-3.2c0.4-0.4,1-0.9,1.7-1.1c0.4-0.1,0.6-0.1,0.9,0c0.3,0.1,0.6,0.2,0.9,0.3c0.3,0.1,0.6,0.2,0.8,0.2
			c0.5,0.1,0.9,0.1,1.4,0.2c-0.1-0.7-0.1-1.3-0.3-2c-0.1-0.7-0.5-1.3-0.9-1.5C195,49.5,194.9,49.4,194.7,49.5z"/>
		<path class="st2" d="M155.7,34.2c-0.2-0.1-0.4-0.1-0.6-0.2c-0.5-0.1-1-0.3-1.5-0.6c-0.2-0.1-0.3-0.3-0.5-0.5
			c-0.3,0.4-0.8,0.6-1.2,0.8c-0.3,0.1-0.6,0.2-0.8,0.4c-0.4,0.4-0.2,1.2,0,1.9c0.2,0.7,0.2,1.6-0.2,2.2l2.6,0c0.6,0,1.2,0,1.7,0.3
			c0.8,0.4,1.2,1.2,1.5,1.8l1.7,3.5c0-0.1,0.1-0.3,0.1-0.4l1,0.1c-0.1,0.5-0.2,1-0.3,1.5c0.5-0.2,0.9-0.6,1.1-1.1c0,0,0,0,0,0l0-0.1
			c0.1-0.1,0.1-0.3,0.1-0.4c0.2-0.9-0.1-1.9-0.3-2.9C159.1,36.9,157.7,34.9,155.7,34.2z"/>
		<path class="st2" d="M149.2,30.7c-1.1-0.8-2.1-1.6-2.9-2.6c-0.1,0.1-0.1,0.1-0.2,0.2c-1,0.7-2.1,1-3.1,1.3
			c-0.9,0.2-1.8,0.4-2.5,0.9c-0.4,0.2-0.6,0.5-0.8,0.8c-0.1,0.2-0.3,0.4-0.5,0.6c0.8,0.8,1.1,2,1.5,3.1c0.3,0.9,0.5,1.8,1,2.4
			c0.8,0.2,1.6,0.4,2.4,0.4c0.2,0,0.4-0.1,0.6-0.1c0.3-0.1,0.6-0.2,1.1-0.1c0.5,0.1,0.9,0.4,1.1,0.8l3.3,0l-0.1-0.3
			c0.5-0.2,0.4-1.1,0.3-1.6c-0.2-0.9-0.6-2,0.2-2.8c0.3-0.3,0.8-0.5,1.2-0.6c0,0,0.1,0,0.1,0C151,32,150.1,31.4,149.2,30.7z"/>
		<path class="st2" d="M133.3,29.8l-1.1,0.4l-0.1-0.4l0,0.5c-0.2,0-0.4,0-0.6,0c-0.1,0-0.3,0-0.5,0c-0.5,0-1.1-0.1-1.5-0.5l-5.2,4.7
			c2.4-0.2,4.5,0.4,6,1.7c0.3,0.3,0.6,0.6,0.9,1c0.3-0.5,0.9-0.8,1.6-1c0-0.1,0-0.3,0-0.4c0.1-1.6,0.8-3.1,1.9-4.3
			C134,31.1,133.6,30.5,133.3,29.8z"/>
		<path class="st2" d="M81.6,55.5c0.1,0.1,0.2,0.2,0.2,0.3c0.4,0.7,0.3,1.9-0.2,2.6c-0.1,0.2-0.3,0.4-0.4,0.5
			c-0.5,0.6-0.9,1.2-0.8,1.7c5.3,3.3,11.8,4.1,18.6,4.5l-0.2-0.3c0.1,0,0.1-0.1,0.1-0.2c0-0.3-0.3-0.7-0.7-0.9
			c-0.2-0.1-0.5-0.2-0.7-0.3c-0.6-0.2-1.3-0.4-1.8-1c-0.2-0.3-0.4-0.7-0.4-1.2c-1.7-0.4-4.2-1.1-6.3-2.3c-0.4-0.2-0.8-0.5-1.1-1.1
			c-0.4-0.8-0.5-1.9-0.2-2.9c-0.5-2.1,0.8-4.1,1.8-5.5c0.6-0.7,1.2-1.5,2.1-2c-0.2-0.1-0.3-0.1-0.4-0.2c-0.4-0.2-0.7-0.5-1-0.8
			c-0.7-0.6-1.3-1.1-2-1.2c-0.6,0-1,0.2-1.3,0.5C86.3,46.3,86,47,86,47.7c-0.1,1.4,0.7,2.7,1.3,3.8l0.5,0.8l-0.9,0
			c-2.3,0-4.7,0.8-6.5,2.2l1.3,0.9L81.6,55.5z"/>
		<path class="st2" d="M119.1,31c0.6,0.8,1.2,1.8,1.5,3c0.1,0.4,0.1,0.9,0.1,1.4c0.8-0.4,1.6-0.7,2.5-0.8c0.1,0,0.2,0,0.3,0
			l-0.3-0.4l5.9-5.4l0.2,0.2c0-0.1-0.1-0.2-0.1-0.3c-0.1-0.3-0.1-0.5-0.2-0.8c-0.4-0.8-1.2-1.2-2-1.3l0-1c1.1,0,2.2,0.7,2.9,1.8
			c0.2,0.4,0.3,0.8,0.4,1.1c0,0.1,0.1,0.3,0.1,0.4c0.1,0.3,0.3,0.4,1.2,0.3c0.2,0,0.4,0,0.5,0l0-0.1l1.2-0.4
			c-0.1-0.9,0.2-1.9,0.8-2.5l0.8,0.6c-0.4,0.5-0.6,1.2-0.5,2c0.1,0.8,0.5,1.4,1.1,1.8c0.8,0.5,1.7,0.5,2.4,0.6
			c0.6,0,0.8-0.2,1.1-0.7c0.2-0.3,0.6-0.7,1.1-1.1c0.9-0.5,1.9-0.8,2.8-1c1-0.2,2-0.5,2.8-1.1c0.8-0.6,1.4-1.5,1.4-2.5l1,0.1
			c-0.1,0.8-0.4,1.6-0.9,2.3c0.7,1,1.7,1.8,2.8,2.6c1,0.7,2.1,1.5,2.8,2.6l0.2,0c-0.3-0.6-0.4-1.3-0.2-2c0.2-0.9,0.8-1.8,1.7-2.6
			l0.6,0.6l0.3-0.3c-0.4-0.7-0.8-1.3-1.3-1.9c-0.5-0.5-1.5-1.2-2.2-0.7l-0.4-0.6c-0.6,0.2-1.2,0.3-1.8,0.3c-1.7,0-3.1-1.1-4.4-2.2
			c-0.2-0.2-0.4-0.3-0.6-0.5c-0.6-0.5-2.9-2-4.5-1c-0.6,0.4-1.1,1.1-1.5,1.9c-0.5,0.9-1,1.9-2,2.4c-1.8,0.9-3.8-0.3-4.5-0.9
			c-0.3-0.2-0.6-0.5-1-0.8c-0.8-0.7-1.5-1.3-2.4-1.6c-0.7-0.2-1.5-0.1-2.1,0.2c-0.2,0.1-0.5,0.4-0.6,0.7c0.7,0.7,1.1,1.8,0.9,2.9
			c-0.2,1.2-0.9,2.3-1.9,2.7c-0.9,0.4-1.9,0.3-2.8,0.3c-0.3,0-0.6,0-1,0c-0.9,0-1.9,0.3-2.3,1c0.2,0.1,0.3,0.3,0.4,0.5L119.1,31z"/>
		<path class="st2" d="M110.4,35.7c0,0.2,0,0.4-0.1,0.6c0.3-0.1,0.7-0.1,1-0.1c1,0,2.1,0.4,3.1,0.7c1.5,0.5,3,1,4.1,0.4
			c0.2-0.4,0.6-0.8,1-1.2c0.2-0.6,0.2-1.3,0.1-2c-0.2-1-0.8-1.9-1.3-2.7l-0.1-0.1c-0.1-0.2-0.2-0.3-0.4-0.4c-0.1-0.1-0.5,0-0.8,0
			c-0.2,0-0.4,0-0.5,0c-0.3,0-0.6,0-0.9,0c-1,0-1.9-0.1-2.9,0.1c-1.4,0.3-2.9,1.5-2.8,2.9c0,0.2,0.1,0.4,0.1,0.6
			C110.3,35,110.4,35.4,110.4,35.7z"/>
		<path class="st2" d="M155.9,27.6l0.6-0.5c0.9-0.7,1.7-1.5,1.6-2.4c0-0.4-0.2-0.8-0.7-1c-0.8-0.5-2-0.6-3-0.2
			c-0.5,0.2-1.1,0.5-1.6,0.7c-0.2,0.1-0.4,0.2-0.6,0.3c0.7,0.1,1.5,0.6,2.1,1.1C155.1,26.2,155.6,26.9,155.9,27.6z"/>
		<path class="st2" d="M168.9,33.7c1.8,1.2,3.8,2,5.9,2.3c0.5,0.1,1,0.2,1.4,0.5c0.5,0.4,0.7,1,0.8,1.5c0.1,0.3,0.1,0.6,0.2,0.9
			c0.2,0.8,0.3,1.6,0.7,2.3c0.1,0.2,0.2,0.4,0.4,0.6l1.3-0.9l-0.9,1.3c0.2,0.2,0.4,0.3,0.6,0.4c1.4-0.8,1.7-2.8,1.2-4.5
			c-0.5-1.7-1.4-3-2.7-3.8l-0.1,0.2c-2.9-1.7-6.4-2.4-9.7-2c0,0.2,0.1,0.3,0.2,0.4C168.3,33.2,168.6,33.5,168.9,33.7z"/>
		<path class="st2" d="M156.3,28.2C156.3,28.2,156.3,28.2,156.3,28.2l-0.9,0.5c0-0.1-0.1-0.1-0.1-0.2l-0.4,0.1l0,0
			c-0.8,0.7-1.2,1.4-1.4,2.1c-0.2,0.8,0.1,1.6,0.7,2c0.3,0.2,0.7,0.3,1.2,0.4c0.2,0,0.4,0.1,0.6,0.2c3.1,1,4.4,4.5,5.1,7
			c0.3,1,0.5,2.1,0.4,3.2c0.9,0.4,1.9,0.4,2.7,0.1l0.1,0.2c0.7-0.5,1.5-0.9,2.4-1.1c-0.4-0.7-0.5-1.5-0.4-2.1
			c0.2-2.2,1.8-4.2,3.9-4.9c-0.6-0.3-1.2-0.7-1.8-1.1c-0.4-0.3-0.9-0.6-1.1-1.1c-0.1-0.2-0.1-0.3-0.2-0.5c-0.4,0.7-0.9,1.4-1.7,1.8
			c-0.7,0.4-1.4,0.5-2.1,0.7l-3.8,0.7l-0.2-1l3.8-0.7c0.6-0.1,1.2-0.2,1.8-0.5c0.7-0.4,1.2-1.2,1.6-1.9l0.4,0.3c0,0,0-0.1,0-0.1
			c0-0.1,0-0.3-0.1-0.4c-0.4-1.8-1.9-3.3-3.9-3.9c-1.7-0.5-3.7-0.5-5.9,0.2L156.3,28.2z"/>
		<path class="st2" d="M184.9,46.3c-0.1,1.1-0.5,2-1,2.8c3.8-0.8,7.7-1.1,11.6-0.9c-0.1-0.2-0.2-0.4-0.3-0.6
			c-0.2-0.4-0.4-0.8-0.6-1.1c-1.3-1.8-3.1-2.4-6.1-2l-0.6,0.1l0-0.6c0-0.1,0-0.2,0-0.4c-1-0.8-2.4-1.2-3.7-0.9
			c-0.3,0.1-0.6,0.2-1,0.3c0.2,0.1,0.4,0.3,0.6,0.5C184.6,44.2,185,45.3,184.9,46.3z"/>
		<path class="st2" d="M113,43.5c1.4,0.7,3,1.4,4.5,1.7c0.1-0.3,0.2-0.7,0.5-1c0.4-0.6,1.1-1.2,1.9-1.5c0-0.1-0.1-0.1-0.1-0.2
			c-0.2-0.3-0.3-0.5-0.5-0.8c-0.5-0.7-1-1.5-1.2-2.5c0-0.2,0-0.5,0-0.7c-1.3,0.3-2.7-0.2-4-0.7c-1-0.3-2-0.7-2.8-0.7
			c-0.6,0-1.1,0.2-1.5,0.5c-0.9,0.8-0.7,2.4,0,3.3C110.5,42.2,111.8,42.8,113,43.5z"/>
		<path class="st2" d="M167.3,40.6c-0.1,0.6,0.1,1.4,0.5,1.8c1.6-0.1,3.2,0.3,4.3,1.2c0.7,0.5,1.1,1.2,1.4,2
			c0.6-0.3,1.2-0.7,1.8-1.1c0.5-0.8,1.1-1.4,1.9-1.9l0.3-0.2c-0.2-0.2-0.3-0.5-0.4-0.7c-0.4-0.8-0.6-1.7-0.8-2.6
			c-0.1-0.3-0.1-0.6-0.2-0.8c-0.1-0.4-0.2-0.8-0.4-1c-0.2-0.2-0.6-0.2-0.9-0.3c-1.2-0.2-2.5-0.6-3.6-1l0.1,0.3
			C169.2,36.7,167.5,38.6,167.3,40.6z"/>
		<path class="st2" d="M102.2,43.8c1.8-1.6,4.2-2.4,6.6-2.3c-0.6-1-0.8-2.3-0.4-3.4c-0.8,0.3-1.8,0.4-2.5,0.4
			c-1.7-0.1-3.5-0.2-4.2,1c-0.5,0.8-0.2,1.9,0.1,3C102,42.9,102.1,43.3,102.2,43.8z"/>
		<path class="st2" d="M94.4,44.6C94.6,45,95,45.5,95,46c0,0.5-0.2,0.9-0.5,1.2c0.2,0.1,0.3,0.2,0.5,0.3c0.4,0.3,0.6,0.7,0.8,1
			c0.2,0.3,0.3,0.5,0.5,0.7c0.8,0.8,2.1,0.6,2.8,0l-0.2-0.7c0.3-0.1,0.6-0.1,0.9-0.1c0.4-0.6,0.6-1.4,0.6-2.2l0.8,0l-1.2-1.5
			c-1.1-1.3-2.1-2.6-3.6-2.8c-0.7-0.1-1.7,0.2-2.2,0.8C94.1,43,93.8,43.5,94,44C94.1,44.2,94.2,44.4,94.4,44.6z"/>
		<path class="st2" d="M162.9,44.8c-0.6,0-1.2-0.1-1.7-0.3c-0.4,0.9-1.2,1.7-2.3,1.8h-0.1c-0.4,0.9-1.1,1.8-1.8,2.5
			c0.3,0,0.6,0.1,0.9,0.2c0.6,0.2,1.1,0.5,1.7,0.8c0.5,0.3,1.1,0.6,1.6,0.7c0.4,0.1,1,0,1.4-0.2c0-0.4,0.1-0.8,0.3-1
			c0.1-0.2,0.2-0.3,0.4-0.3c0,0-0.1-0.1-0.1-0.1c-0.7-1.2-0.6-2.8,0.3-4C163.2,44.8,163.1,44.8,162.9,44.8z"/>
		<path class="st2" d="M120.3,36.8c-0.2,0.5-0.6,0.9-1,1.2c0,0,0,0-0.1,0c-0.1,0.3-0.2,0.7-0.1,1c0.1,0.7,0.5,1.3,1,2
			c0.2,0.3,0.4,0.6,0.6,0.9c0.1,0.1,0.2,0.3,0.2,0.4c0.3,0,0.6-0.1,1-0.1c1,0,2,0.2,3,0.4c0.3,0.1,0.7,0.1,1,0.2
			c1.7,0.3,3.1,0.2,4-0.4l-2.5-1.1l2.7,0.1c0.2,0,0.4,0,0.6,0c0.2-0.4,0.4-1,0.4-1.5c0-1.2-0.5-2.4-1.4-3.2
			c-1.9-1.7-4.8-1.5-6.3-1.3C122.4,35.8,121.2,36.1,120.3,36.8z"/>
		<path class="st2" d="M118.9,44.7c-0.1,0.1-0.2,0.3-0.3,0.5c0.1,0,0.1,0,0.2,0c0.5,0,0.8-0.1,1-0.2c0.4-0.3,0.5-0.8,0.4-1.3
			C119.7,43.9,119.2,44.3,118.9,44.7z"/>
		<path class="st2" d="M100.8,54.4c0.3,0.3,0.6,0.7,0.8,1.1c0.2,0.5,0.3,1.1,0.3,1.6c0,0,0.1,0,0.1,0c0.2,0.1,0.4,0.3,0.7,0.4
			c0.2,0.1,0.4,0.3,0.5,0.3c0.5,0.2,1.2,0.1,1.9-0.1l3.1-0.8c-0.7-0.7-1.2-1.5-1.4-2.6c-0.1-0.7,0.1-1.4,0.4-2.1
			c-1.9-0.2-3.8-0.6-5.4-1.7l-0.2-0.2c0.2,1-0.1,2.1-0.4,2.9C101.2,53.7,101.1,54.1,100.8,54.4z"/>
		<path class="st2" d="M164,48.2c0.9,1.4,3,1.5,3.9,1.4c0.4,0,0.8-0.1,1.1-0.1c0.6-0.1,1.3-0.1,1.9-0.1c0.7,0,1.3,0.1,2,0.3
			c0.4,0.1,0.8,0.3,1.2,0.6c-0.1-0.8-0.1-1.6,0-2.4c0.1-0.5,0.2-1.1,0.4-1.6c-0.4,0.2-0.8,0.4-1.2,0.5l-0.6,0.2l-0.1-0.7
			c-0.1-0.9-0.6-1.5-1.1-1.9c-1-0.8-2.5-1.2-3.9-1l-0.1,0.1c0,0-0.1,0-0.1-0.1c-1.3,0.2-2.4,0.8-3.1,1.5
			C163.6,46,163.4,47.3,164,48.2z"/>
		<path class="st2" d="M137.9,32.2c-0.1,0-0.2,0-0.3,0c0,0,0,0-0.1,0c-0.6,0-1.3,0-2.1-0.3c-1,1-1.6,2.5-1.8,3.9c0,0,0,0,0,0
			c0.2,0,0.3-0.1,0.4-0.1c1.4-0.2,2.9,0,4.6,0.6c0.3,0.1,0.7,0.2,1,0.4c0.1,0,0.2,0.1,0.3,0.1c-0.2-0.5-0.4-1.1-0.5-1.7
			C139.1,34,138.8,32.8,137.9,32.2z"/>
		<path class="st2" d="M171.4,61.2l0.1,0c-0.8-0.7-1.2-1.9-0.8-3c-0.9,0-1.9-0.2-2.6-0.6c-0.7-0.3-1.3-0.8-1.9-1.2
			c-1.2,2-3.6,3.2-5.9,3.2c-0.5,0-1-0.1-1.4-0.2c1.3,2.2,2.2,4.6,2.6,7.2c1.1,0,2.3,0,3.4-0.1c0.6,0,1.3-0.1,1.9-0.1l-0.1-0.2l3-1
			c-0.2-1,0.1-2.7,0.3-3.1C170.4,61.3,171,61.2,171.4,61.2z"/>
		<path class="st2" d="M193.8,53.6c-0.2-0.1-0.5-0.2-0.8-0.2c-0.2,0-0.3,0-0.4,0c-0.5,0.2-1.1,0.7-1.3,0.9c-0.9,0.8-1.5,2-2.1,2.9
			c1-0.1,2.1-0.1,3.1,0.2c0.6,0.2,1.1,0.4,1.5,0.7c1.5,1.1,1.9,3,2,5c1.3-0.2,2.6-0.4,4-0.6c0.1-0.8,0.3-1.6,0.5-2.3
			c0.2-0.7,0.4-1.3,0.4-2c0.1-0.9-0.2-2-0.7-2.6c-0.3-0.4-0.7-0.6-1.1-0.6l0.1-0.8c-0.1,0-0.1,0-0.2,0l-2.3-0.2
			c-0.6,0-1.1-0.1-1.6-0.2C194.4,53.8,194.1,53.7,193.8,53.6z"/>
		<path class="st2" d="M160.4,66.5c-0.6-4.7-3.3-9-7.1-11.8c-0.5-0.3-1-0.7-1.2-1.3c-0.1-0.4-0.1-0.8,0-1.3c0.1-0.3,0.2-0.6,0.3-0.8
			c-0.6,0.2-1.3,0.3-2,0.3c-0.1,0-0.1,0-0.2,0c-0.2,0-0.3,0-0.5,0c0.6,0.5,1.4,1.1,1.7,2.1c0.3,1.2-0.2,2.3-0.7,3.3
			c-0.7,1.3-1.5,2.9-2.8,3.9c-0.9,0.7-2.2,1.2-3.5,1.1c0.6,0.6,1.2,1.3,1.6,2c0.6,0.9,0.9,1.9,0.6,2.7
			C151.3,66.6,155.9,66.6,160.4,66.5z"/>
		<path class="st2" d="M187,64.5c2.6-0.4,5.2-0.8,7.6-1.2c0.1,0,0.1,0,0.2,0c-0.1-1.8-0.4-3.5-1.6-4.4c-0.3-0.2-0.7-0.4-1.2-0.6
			c-1.9-0.6-4.1-0.2-5.7,1c-1.3,1-2.2,2.5-2.5,4.1c0.1,0.1,0.1,0.2,0.2,0.3c0.1,0.3,0.1,0.7,0,1C185,64.7,186.1,64.7,187,64.5z"/>
		<path class="st2" d="M178.6,65c1.1-0.1,2.4-0.2,3.7-0.2c0.2,0,0.5,0,0.8,0l-0.1-0.3h-0.3c0-0.2,0-0.5,0.1-0.8
			c-0.1-0.1-0.2-0.2-0.4-0.3c-1.8-1.2-4-1.7-6.9-1.7c-1.1,0-2.3,0.1-3.8,0.3l-0.2,0c-0.4,0-0.5,0.1-0.6,0.2
			c-0.2,0.3-0.4,2.2-0.2,2.6c0-0.1-0.2-0.2-0.3-0.1l0.3,0.9L170,66c2-0.2,4.1-0.4,6.1-0.7C176.9,65.2,177.8,65.1,178.6,65z"/>
		<path class="st2" d="M197.3,53.1l1.4,0.1c0.6,0,1.6,0,1.8-0.5c-1.2-0.6-2-1.5-2.1-2.7c-0.2,0-0.4,0.1-0.5,0.1
			c-0.5,0-0.9-0.2-1.3-0.5c0.2,0.4,0.4,0.8,0.5,1.2C197.2,51.6,197.3,52.4,197.3,53.1z"/>
		<path d="M247.6,106.4c-2.4-1.3-5.3-1.9-7.6-2.2l-9.6-33.2c-0.9-3-1.8-6.4-4.1-8.9c-2.7-3-6.8-4.2-10.1-5.2L206,53.9l0.1-0.3
			c-0.4-0.1-0.9-0.3-1.4-0.4c-2.2-0.6-5.5-1.5-5.3-3.5l-0.6,0l-0.2-0.7c-1.2,0.4-1.7-0.2-2.5-1.8c-0.2-0.4-0.4-0.8-0.7-1.2
			c-1.8-2.4-4.3-2.7-6.4-2.5c0-0.1,0-0.1,0.1-0.2l-0.5-0.2l0.1-0.1c-1.3-1.1-3-1.5-4.6-1.2c-0.6,0.1-1.1,0.3-1.6,0.5
			c-0.6,0.2-1.1,0.4-1.7,0.5c1-1.3,1.1-3.2,0.7-4.8c-0.7-2.4-2.3-4.2-4.3-5l-0.1,0.2c-2.9-1.4-6.1-2-9.3-1.6c0,0,0,0,0,0
			c-0.4-2.1-2.2-3.9-4.5-4.6c-1.4-0.4-3-0.5-4.7-0.2c0.4-0.5,0.7-1.2,0.7-2s-0.4-1.4-1.1-1.8c-1-0.6-2.6-0.8-3.9-0.3
			c-0.6,0.2-1.1,0.5-1.7,0.8c-1.1,0.5-2,1.1-3.1,1c-1.4,0-2.6-1-3.8-2c-0.2-0.2-0.4-0.3-0.6-0.5c-1-0.8-3.5-2.4-5.6-1.1
			c-0.9,0.5-1.4,1.4-1.8,2.3c-0.4,0.8-0.9,1.6-1.6,2c-1.3,0.7-3-0.5-3.5-0.8c-0.3-0.2-0.6-0.5-0.9-0.7c-0.8-0.7-1.7-1.4-2.8-1.8
			c-1-0.3-2.1-0.2-3,0.3c-0.6,0.4-1,1-1.1,1.6l-0.1,0.3l0.2,0.2c0.6,0.5,0.9,1.3,0.8,2.2s-0.6,1.6-1.3,1.9c-0.7,0.3-1.5,0.3-2.4,0.2
			c-0.3,0-0.7,0-1,0c-1.3,0-2.7,0.5-3.2,1.6c-0.3,0-0.5,0-0.8,0c-0.1,0-0.3,0-0.4,0c-0.3,0-0.6,0-0.8,0c-1,0-2.1-0.1-3.1,0.2
			c-1.9,0.4-3.7,2-3.5,3.9c0,0.2,0.1,0.5,0.1,0.8c0.1,0.3,0.1,0.5,0.1,0.8c0,0.4-0.2,0.7-0.4,0.9c-0.7,0.6-2,0.9-3,0.8
			c-1.8-0.1-4-0.2-5,1.5c-0.7,1.2-0.3,2.5,0,3.8c0.2,0.7,0.4,1.5,0.4,2.1l-0.6-0.7c-1.2-1.5-2.4-2.9-4.2-3.2
			c-1.1-0.2-2.4,0.3-3.1,1.2c-0.6,0.7-0.7,1.5-0.4,2.3c0.1,0.3,0.3,0.6,0.5,0.8c0.2,0.3,0.4,0.6,0.4,0.9c0,0.2,0,0.4-0.3,0.5
			c-0.5,0.3-1.4,0.2-2-0.2c-0.3-0.2-0.6-0.5-0.9-0.7c-0.8-0.7-1.5-1.3-2.6-1.4c-0.7,0-1.4,0.2-2,0.7c-0.7,0.6-1.2,1.6-1.2,2.6
			c-0.1,1.3,0.4,2.5,1.1,3.6c-2.5,0.2-4.9,1.2-6.8,2.9l-0.5,0.4l0.6,0.4c-4.8,0.3-9.7,1.6-14,3.8c-1.5,0.8-3.4,1.8-4.8,3.5
			c-1.8,2.1-2.4,4.9-3,7.4l-7.9,34.2c-0.7,0.1-1.3,0.2-2,0.3c-2.1,0.3-4.2,0.6-6.1,1.7c-1.4,0.8-2.7,1.7-3.8,2.7
			c-0.5,0.4-1,0.9-1.3,1.6c-1,2.3-0.1,5.4,1.8,6.9c2.1,1.6,4.3,2.4,6.6,3.3c1.1,0.4,2.2,0.8,3.3,1.3c11.6,5.3,66.5,8.1,101.3,8.1
			c12.5,0,22.4-0.4,26.9-1.1c3.1-0.2,6.3-0.3,9.5-0.4c18.9-0.8,38.4-1.6,56.7-7c5.9-1.7,9.1-4.4,9.3-7.9
			C252.1,110.6,250.4,107.9,247.6,106.4z M201.4,53.2c1,0.4,2.1,0.7,3,1c0.4,0.1,0.8,0.2,1.2,0.3l-0.1,0.3L206,55l0,0.1
			c0.6,0.3,1.1,0.8,1.3,1.6c0.3,1,0.1,2.2-0.6,3c-1,1.3-2.7,2.2-5.2,2.6c-0.3,0-0.5,0.1-0.8,0.1c0.1-0.6,0.2-1.3,0.4-1.9
			c0.2-0.7,0.4-1.4,0.5-2.2c0.1-1.2-0.2-2.5-0.9-3.3c-0.3-0.3-0.6-0.6-1-0.8C200.6,54.1,201.2,53.7,201.4,53.2z M197.9,50.1
			c0.2,0,0.3,0,0.5-0.1c0.1,1.2,1,2.1,2.1,2.7c-0.1,0.5-1.2,0.6-1.8,0.5l-1.4-0.1c-0.1-0.8-0.1-1.5-0.3-2.3
			c-0.1-0.4-0.2-0.8-0.5-1.2C196.9,49.9,197.3,50.1,197.9,50.1z M198.6,54.2c0.1,0,0.1,0,0.2,0l-0.1,0.8c0.4,0,0.8,0.2,1.1,0.6
			c0.5,0.6,0.8,1.6,0.7,2.6c-0.1,0.7-0.2,1.3-0.4,2c-0.2,0.8-0.4,1.5-0.5,2.3c-1.3,0.2-2.7,0.4-4,0.6c-0.1-2-0.5-4-2-5
			c-0.4-0.3-0.9-0.5-1.5-0.7c-1-0.3-2.1-0.4-3.1-0.2c0.5-0.9,1.2-2.1,2.1-2.9c0.2-0.2,0.8-0.7,1.3-0.9c0.2,0,0.2,0,0.4,0
			c0.3,0,0.5,0.1,0.8,0.2c0.3,0.1,0.6,0.2,1,0.3c0.5,0.1,1.1,0.1,1.6,0.2L198.6,54.2z M184,63.8c0-0.1-0.1-0.2-0.2-0.3
			c0.3-1.6,1.2-3.1,2.5-4.1c1.6-1.2,3.8-1.6,5.7-1c0.5,0.2,0.9,0.3,1.2,0.6c1.2,0.9,1.5,2.6,1.6,4.4c-0.1,0-0.1,0-0.2,0
			c-2.4,0.4-5,0.7-7.6,1.2c-0.9,0.2-2,0.2-3.1,0.3C184.1,64.5,184.1,64.1,184,63.8z M169.7,65.1l-3,1l0.1,0.2
			c-0.6,0-1.3,0.1-1.9,0.1c-1.1,0-2.3,0.1-3.4,0.1c-0.3-2.5-1.2-5-2.6-7.2c0.5,0.1,1,0.2,1.4,0.2c2.3,0,4.6-1.2,5.9-3.2
			c0.6,0.5,1.2,0.9,1.9,1.2c0.8,0.4,1.7,0.6,2.6,0.6c-0.3,1,0,2.3,0.8,3l-0.1,0c-0.4,0-1,0.1-1.3,0.8
			C169.8,62.3,169.5,64.1,169.7,65.1z M146.2,63.9c-0.5-0.7-1-1.4-1.6-2c1.3,0.2,2.6-0.3,3.5-1.1c1.3-1.1,2.1-2.6,2.8-3.9
			c0.6-1.1,1.1-2.2,0.7-3.3c-0.3-1-1.1-1.6-1.7-2.1c0.2,0,0.3,0,0.5,0c0.1,0,0.1,0,0.2,0c0.7,0,1.3-0.1,2-0.3
			c-0.1,0.3-0.2,0.5-0.3,0.8c-0.1,0.5-0.1,1,0,1.3c0.2,0.6,0.7,1,1.2,1.3c3.8,2.7,6.4,7.1,7.1,11.8c-4.5,0.1-9.1,0.2-13.6,0.2
			C147.1,65.8,146.7,64.7,146.2,63.9z M98.5,62.9c-0.3-0.1-0.5-0.2-0.8-0.3c-0.5-0.2-1-0.3-1.3-0.7s-0.3-1-0.1-1.6
			c0.1-0.3,0.6-0.5,1.1-0.7c0.2-0.1,0.4-0.2,0.6-0.2c0.2-0.1,0.4-0.2,0.7-0.4c0.6-0.4,1.6-0.9,2.3-1c0,0,0,0.1,0,0.1h0.7
			c0.2,0.1,0.3,0.2,0.4,0.3c0.2,0.2,0.4,0.3,0.7,0.5c0.9,0.4,1.9,0.2,2.6,0l3.8-1c0.4,0.3,0.8,0.5,1.1,0.7c0.3,0.2,0.7,0.3,1.1,0.5
			c1.2,0.5,2.3,1.1,3.1,1.9c0.5,0.5,0.8,1.3,0.8,2c-0.6,0.6-0.9,1.3-1,2l-0.1,1l0.8-0.5c0.7-0.4,1.1-1.1,1.2-2c0,0,0,0,0,0
			c0.3-0.2,0.6-0.4,0.9-0.5c1.1-0.4,2.2-0.3,3.4-0.3c1,0,2.2,0.1,3.1,0.6c0.8,0.4,1.4,1.4,1.1,2.3l-0.3,0.8l0.8-0.1
			c1.8-0.2,3.5-1.4,4.4-3c0.2,0.4,0.5,0.7,0.9,1c1.1,0.9,2.6,1.3,3.8,1.5l4.5,1c-13.1-0.1-26.2-0.6-39.2-1.3
			c0.1-0.2,0.1-0.4,0.1-0.7C99.7,63.9,99.2,63.2,98.5,62.9z M100.7,55.9c0.1,0.3,0.2,0.7,0.2,1.1c-1,0.1-2,0.7-2.8,1.2
			c-0.2,0.1-0.4,0.3-0.6,0.3c-0.1,0.1-0.3,0.1-0.5,0.2c-0.6,0.2-1.4,0.5-1.7,1.3c0,0.1-0.1,0.2-0.1,0.3c-1.7-0.4-4-1-5.8-2.2
			c-0.4-0.2-0.6-0.4-0.7-0.7c-0.2-0.5-0.3-1.2-0.2-1.9c3.3-1.6,7.1-1.9,10.6-0.9c0.1,0,0.1,0,0.2,0v0
			C99.9,54.8,100.4,55.3,100.7,55.9z M101.7,50.5l0.2,0.2c1.6,1.1,3.5,1.5,5.4,1.7c-0.3,0.7-0.5,1.4-0.4,2.1c0.1,1,0.7,1.9,1.4,2.6
			l-3.1,0.8c-0.8,0.2-1.4,0.3-1.9,0.1c-0.2-0.1-0.3-0.2-0.5-0.3c-0.2-0.1-0.4-0.3-0.7-0.4c0,0-0.1,0-0.1,0c0-0.5-0.1-1.1-0.3-1.6
			c-0.2-0.5-0.4-0.8-0.8-1.1c0.3-0.3,0.4-0.7,0.5-0.9C101.6,52.6,101.9,51.5,101.7,50.5z M110.5,51.5c-0.1,0-0.3,0-0.4,0
			c0.1-0.1,0.3-0.3,0.5-0.4c0.1-0.1,0.2-0.2,0.4-0.2c0.2-0.1,0.5-0.1,0.8-0.1c1.8-0.1,3.6,0.6,5,2c1.4,1.4,2.1,3.2,2,5l-0.1,0.8
			l0.7-0.3c0.8-0.3,1.6-0.8,2.2-1.5c0.5,1.6,1.6,2.9,3.1,3.7c1.3,0.7,2.9,1,4.7,0.8c0,0.2,0,0.4,0,0.6c-0.5,1.5-1.8,2.8-3.3,3.2
			c0-1.1-0.8-2.2-1.7-2.7c-1.1-0.6-2.5-0.7-3.6-0.7c-0.3,0-0.7,0-1,0c-0.9,0-1.8,0.1-2.7,0.4c-0.2,0.1-0.4,0.2-0.6,0.3
			c-0.1-0.7-0.5-1.5-1-2c-0.9-1-2.2-1.6-3.4-2.2c-0.3-0.2-0.7-0.3-1-0.5c-1.2-0.6-2.8-1.7-2.9-3.2c-0.1-0.8,0.2-1.4,0.6-1.9
			c0.3,0,0.6,0,0.9,0c0.2,0.2,0.5,0.3,0.8,0.3c0.5,0,0.8-0.3,0.9-0.7l0.1-0.5L110.5,51.5z M171.1,36c1.1,0.5,2.4,0.8,3.6,1
			c0.4,0.1,0.7,0.1,0.9,0.3c0.2,0.2,0.4,0.6,0.4,1c0.1,0.3,0.1,0.6,0.2,0.8c0.2,0.9,0.4,1.8,0.8,2.6c0.1,0.2,0.2,0.5,0.4,0.7
			l-0.3,0.2c-0.7,0.5-1.4,1.2-1.9,1.9c-0.6,0.4-1.2,0.8-1.8,1.1c-0.2-0.8-0.7-1.4-1.4-2c-1.1-0.9-2.8-1.3-4.3-1.2
			c-0.4-0.5-0.6-1.2-0.5-1.8c0.2-2,1.9-3.9,3.9-4.2L171.1,36z M167.5,43.5C167.5,43.5,167.5,43.5,167.5,43.5l0.1,0
			c1.4-0.2,2.9,0.2,3.9,1c0.5,0.4,1,1,1.1,1.9l0.1,0.6l0.6-0.2c0.4-0.2,0.8-0.3,1.2-0.5c-0.2,0.5-0.3,1-0.4,1.6
			c-0.1,0.8-0.1,1.6,0,2.4c-0.4-0.3-0.8-0.5-1.2-0.6c-0.7-0.2-1.3-0.3-2-0.3c-0.6,0-1.3,0.1-1.9,0.1c-0.4,0-0.8,0.1-1.1,0.1
			c-0.9,0.1-3,0-3.9-1.4c-0.5-0.9-0.4-2.2,0.4-3.2C165.1,44.2,166.2,43.7,167.5,43.5z M164.1,49.8c0.9,0.6,2.2,0.9,3.8,0.8
			c0.4,0,0.8-0.1,1.2-0.1c1.2-0.1,2.4-0.2,3.5,0.1c1.8,0.6,3,2.8,2.5,4.7c-1.4,2.1-4.5,2.3-6.6,1.3c-2.6-1.2-4.1-3.8-4.9-5.8
			c0,0,0-0.1-0.1-0.1C163.9,50.4,164.1,50.1,164.1,49.8z M165.9,56l-0.5-0.3c-1.4,2.3-4.5,3.4-7,2.4l-0.1,0.3
			c-1.2-1.7-2.7-3.3-4.4-4.5c-0.4-0.2-0.7-0.5-0.8-0.8c-0.1-0.2-0.1-0.4,0-0.8c0.2-0.6,0.6-1.2,1.1-1.7c0.5-0.2,0.9-0.5,1.4-0.8
			c0.7-0.2,1.4-0.2,2-0.1c0.5,0.2,1,0.4,1.5,0.7c0.6,0.3,1.2,0.6,1.8,0.8c0.6,0.2,1.3,0.1,1.8-0.1C163.4,52.7,164.4,54.6,165.9,56z
			 M129.6,60c0,0.1-0.1,0.1-0.1,0.2c-1.8,0.2-3.3-0.1-4.5-0.7c-1.3-0.7-2.4-2.1-2.7-3.5c0-0.1,0-0.2-0.1-0.3c0.5-0.9,0.8-1.9,0.8-3
			l0-0.7c0.7,0.3,1.4,0.5,2.1,0.6c2.8,0.4,5.6-0.7,7-2.8c0.9,1.4,2.7,2.1,5.3,2.3c0.8,1.1,1.1,2.4,0.7,3.5c-0.2,0.6-0.5,1.2-1,1.7
			c-0.9,0.2-1.8,0.5-2.6,1.2l-1,0.8c-0.2,0.1-0.3,0.1-0.5,0.2c-0.9,0.3-1.8,0.5-2.6,0.6l0-1.6L129.6,60z M121.2,43.4
			c1.1-0.1,2.2,0.1,3.4,0.4c0.3,0.1,0.7,0.2,1,0.2c2.2,0.4,3.9,0.2,5.1-0.8c0.5,0.5,0.9,1.1,1.2,1.8c0.4,1,0.4,2.2,0,3.2l-0.5-0.1
			l0.3,0.6c0,0,0,0,0,0c-1.1,2-3.8,3.2-6.3,2.8c-2.3-0.4-4.5-1.9-6.1-4.1c-0.1-0.2-0.3-0.4-0.4-0.6c0.1-0.2,0.1-0.4,0.2-0.6
			c0.4,0,0.9-0.1,1.4-0.4C121.2,45.3,121.4,44.3,121.2,43.4z M131.9,38.8l0.3-0.3c-0.2-0.2-0.3-0.4-0.3-0.6c0.1-0.3,0.7-0.6,1.4-0.8
			c0.1,0,0.2,0,0.2,0c0.1,0,0.1,0,0.2,0l0-0.1c0.2,0,0.3-0.1,0.5-0.1c1.2-0.2,2.6,0,4.1,0.5c0.3,0.1,0.6,0.2,1,0.4
			c0.5,0.2,1,0.4,1.5,0.5c0.1,0.2,0.3,0.3,0.5,0.5l0.2-0.2c0.8,0.2,1.6,0.3,2.4,0.3c0.2,0,0.4,0,0.6-0.1c-0.2,0.2-0.5,0.3-0.7,0.6
			c-0.8,0.9-1.3,2.2-1.3,3.6c-1.4-0.9-3.2-1.4-5.3-1.4c-1.2,0-2.4,0-3.6,0.1c-0.6,0-1.3,0.1-1.9,0.1c0.2-0.5,0.3-1,0.3-1.5
			C132.1,39.7,132,39.2,131.9,38.8z M133.8,42.5c1.1-0.1,2.3-0.2,3.4-0.1c1.4,0,3.7,0.3,5.4,1.7c0,0.2,0.1,0.3,0.1,0.5
			c0.3,1.1,0.8,2.1,1.6,3.1c0,0.2,0,0.4,0,0.6c-0.2,1-0.6,1.7-1.3,2.2c-0.8,0.5-1.9,0.6-3.1,0.6c-0.6,0-1.3,0-1.8,0
			c-0.2-0.2-0.4-0.4-0.6-0.6c-1.1-1-2.6-1.8-4.5-2.2c0.4-1.2,0.4-2.5-0.1-3.7c-0.3-0.8-0.7-1.5-1.2-2
			C132.3,42.6,133.1,42.6,133.8,42.5z M136.4,50.9c-1.4-0.2-2.4-0.7-3.1-1.5C134.5,49.8,135.6,50.3,136.4,50.9z M137.6,58.2
			c1.3-0.1,2.6,0.3,3.6,1.2c0.1,0.1,0.2,0.2,0.3,0.3c-1.3-0.7-2.6-1.1-4-1.3C137.5,58.3,137.6,58.3,137.6,58.2z M138.5,57.2
			c0.3-0.4,0.5-0.9,0.6-1.4c0.3-1.2,0.1-2.5-0.5-3.7c0.4,0,0.8,0,1.2,0c1.1,0,2.5-0.1,3.6-0.8c0.8-0.5,1.4-1.2,1.6-2.2l4,3
			c0.7,0.5,1.3,1,1.5,1.7c0.2,0.8-0.2,1.7-0.6,2.6c-0.6,1.3-1.4,2.7-2.5,3.6c-1,0.8-2.6,1.2-3.7,0.5c-0.4-0.3-0.8-0.7-1.1-1.1
			c-0.2-0.3-0.4-0.5-0.7-0.8C141,57.8,139.8,57.3,138.5,57.2z M148.1,50c-0.8-0.4-1.4-1-1.9-1.5c-0.4-0.4-0.7-0.7-0.9-1.1
			c-0.1-1.2-0.4-2.3-1.2-3.2c-0.2-0.2-0.4-0.4-0.6-0.6c-0.2-1.4,0.2-2.8,1-3.7c0.2-0.3,0.5-0.4,0.7-0.5c0.2-0.1,0.6-0.1,0.9-0.1l0,0
			l0.7,0.5c0.1-0.1,0.1-0.3,0.2-0.5l6.6,0c0,0,0.1,0,0.1,0c0.4,0,0.8,0,1.1,0.2c0.5,0.2,0.8,0.8,1.1,1.4l2.2,4.5
			c-0.6,1.5-1.6,2.7-2.9,3.7c-0.3,0.1-0.5,0.2-0.8,0.3c-0.3,0.2-0.5,0.3-0.7,0.5c-1,0.5-2.1,0.7-3.3,0.7
			C149.5,50.5,148.7,50.3,148.1,50z M163.1,48.7c0,0,0.1,0.1,0.1,0.1c-0.1,0.1-0.3,0.2-0.4,0.3c-0.2,0.3-0.3,0.6-0.3,1
			c-0.4,0.2-0.9,0.3-1.4,0.2c-0.6-0.1-1.1-0.4-1.6-0.7c-0.5-0.3-1.1-0.6-1.7-0.8c-0.3-0.1-0.6-0.1-0.9-0.2c0.7-0.7,1.4-1.6,1.8-2.5
			h0.1c1.1,0,1.9-0.8,2.3-1.8c0.5,0.2,1.1,0.3,1.7,0.3c0.2,0,0.3,0,0.5,0C162.6,46,162.4,47.5,163.1,48.7z M160.5,43.5
			c0,0.1-0.1,0.3-0.1,0.4l0,0.1c0,0,0,0,0,0c-0.2,0.5-0.6,0.9-1.1,1.1c0.2-0.5,0.3-1,0.3-1.5l-1-0.1c0,0.1,0,0.3-0.1,0.4l-1.7-3.5
			c-0.3-0.6-0.7-1.4-1.5-1.8c-0.6-0.3-1.2-0.3-1.7-0.3l-2.6,0c0.4-0.6,0.4-1.5,0.2-2.2c-0.2-0.7-0.4-1.5,0-1.9
			c0.2-0.2,0.5-0.3,0.8-0.4c0.4-0.2,0.9-0.4,1.2-0.8c0.1,0.2,0.3,0.3,0.5,0.5c0.5,0.3,1,0.5,1.5,0.6c0.2,0,0.4,0.1,0.6,0.2
			c2,0.7,3.4,2.7,4.5,6.3C160.4,41.6,160.7,42.6,160.5,43.5z M151.6,32.9c-0.4,0.1-0.8,0.3-1.2,0.6c-0.8,0.8-0.5,2-0.2,2.8
			c0.1,0.5,0.2,1.4-0.3,1.6l0.1,0.3l-3.3,0c-0.3-0.4-0.7-0.7-1.1-0.8c-0.5-0.1-0.8,0-1.1,0.1c-0.2,0.1-0.4,0.1-0.6,0.1
			c-0.8,0-1.6-0.2-2.4-0.4c-0.5-0.6-0.7-1.5-1-2.4c-0.3-1.1-0.6-2.3-1.5-3.1c0.2-0.2,0.4-0.4,0.5-0.6c0.2-0.3,0.4-0.6,0.8-0.8
			c0.8-0.5,1.6-0.7,2.5-0.9c1.1-0.3,2.2-0.5,3.1-1.3c0.1-0.1,0.2-0.1,0.2-0.2c0.8,1.1,1.9,1.9,2.9,2.6C150.1,31.4,151,32,151.6,32.9
			C151.6,32.9,151.6,32.9,151.6,32.9z M139.5,35.2c0.2,0.6,0.3,1.1,0.5,1.7c-0.1,0-0.2-0.1-0.3-0.1c-0.3-0.1-0.7-0.3-1-0.4
			c-1.7-0.6-3.2-0.8-4.6-0.6c-0.1,0-0.2,0-0.4,0.1c0,0,0,0,0,0c0.1-1.4,0.8-2.8,1.8-3.9c0.7,0.3,1.5,0.3,2.1,0.3c0,0,0,0,0.1,0
			c0.1,0,0.2,0,0.3,0C138.8,32.8,139.1,34,139.5,35.2z M132.7,35.8c0,0.1,0,0.3,0,0.4c-0.6,0.2-1.2,0.5-1.6,1
			c-0.2-0.4-0.5-0.7-0.9-1c-1.4-1.2-3.5-1.8-6-1.7l5.2-4.7c0.4,0.5,1,0.5,1.5,0.5c0.2,0,0.3,0,0.5,0c0.2,0,0.4,0,0.6,0l0-0.5
			l0.1,0.4l1.1-0.4c0.2,0.7,0.7,1.3,1.2,1.7C133.5,32.7,132.9,34.2,132.7,35.8z M129.6,36.9c0.9,0.8,1.4,2,1.4,3.2
			c0,0.6-0.1,1.1-0.4,1.5c-0.2,0-0.4,0-0.6,0l-2.7-0.1l2.5,1.1c-0.9,0.6-2.2,0.7-4,0.4c-0.3-0.1-0.7-0.1-1-0.2c-1-0.2-2-0.4-3-0.4
			c-0.3,0-0.6,0-1,0.1c-0.1-0.2-0.1-0.3-0.2-0.4c-0.2-0.3-0.4-0.6-0.6-0.9c-0.5-0.7-0.9-1.3-1-2c-0.1-0.4,0-0.7,0.1-1c0,0,0,0,0.1,0
			c0.5-0.3,0.8-0.8,1-1.2c0.9-0.6,2.1-1,3-1.2C124.9,35.4,127.7,35.3,129.6,36.9z M120.2,43.7c0.1,0.6,0,1.1-0.4,1.3
			c-0.2,0.2-0.5,0.2-1,0.2c-0.1,0-0.1,0-0.2,0c0.1-0.2,0.2-0.4,0.3-0.5C119.2,44.3,119.7,43.9,120.2,43.7z M122.7,51.7l-0.5,0.6
			c-0.7,0.8-1,1.9-0.9,3c-0.4,0.6-0.9,1.1-1.6,1.5c-0.1-1.8-0.9-3.5-2.3-4.9c-1.3-1.3-2.9-2.1-4.6-2.2c1.1-0.6,2.3-1.1,3.6-1.4
			l0.1,0c0.5-0.1,1.1-0.3,1.6-0.6c0.1,0.1,0.2,0.2,0.2,0.3C119.5,49.6,121,50.9,122.7,51.7z M134.6,64.7c-1.2-0.2-2.5-0.5-3.4-1.3
			c-0.4-0.4-0.8-0.9-0.9-1.5c0.1-0.3,0.1-0.5,0.2-0.8c0.9-0.1,1.9-0.4,2.9-0.7c1-0.3,1.9-0.7,2.7-1.1c3.7,0.1,7.2,2.1,9.2,5.2
			c0.5,0.8,0.8,1.7,0.3,2.2c0,0,0,0,0,0c-0.6,0-1.3,0-1.9,0L134.6,64.7z M170.7,65.8l-0.3-0.9c0.1-0.1,0.3,0,0.3,0.1
			c-0.2-0.4,0-2.2,0.2-2.6c0.1-0.1,0.2-0.2,0.6-0.2l0.2,0c1.5-0.2,2.7-0.3,3.8-0.3c2.9-0.1,5.1,0.5,6.9,1.7c0.1,0.1,0.2,0.2,0.4,0.3
			c0,0.2-0.1,0.5-0.1,0.8h0.3l0.1,0.3c-0.2,0-0.5,0-0.8,0c-1.3,0-2.6,0.1-3.7,0.2c-0.9,0.1-1.7,0.2-2.5,0.3c-2,0.2-4,0.5-6.1,0.7
			L170.7,65.8z M183,62.6C183,62.6,183,62.6,183,62.6c-2-1.3-4.4-1.9-7.5-1.8c-1,0-2.1,0.1-3.4,0.3l0.3-0.5c-0.7-0.5-1-1.6-0.6-2.4
			l-0.1,0c1.7-0.1,3.4-0.9,4.3-2.4l0.1-0.1c0.1-0.5,0.2-0.9,0.2-1.4c0.2,0.2,0.5,0.3,0.8,0.3c0.1,0,0.3,0,0.4,0l0,0.6
			c1.5-0.1,3.1-0.1,4,0.9c0.3,0.3,0.6,0.8,0.8,1.2l1.7,3.2C183.5,61.1,183.2,61.9,183,62.6z M196.1,51.1c0.1,0.7,0.2,1.3,0.3,2
			c-0.5,0-0.9-0.1-1.4-0.2c-0.3,0-0.5-0.1-0.8-0.2c-0.3-0.1-0.6-0.2-0.9-0.3c-0.3-0.1-0.6-0.1-0.9,0c-0.7,0.2-1.3,0.7-1.7,1.1
			c-1,1-1.7,2.2-2.3,3.2l0.8,0.4c-1.2,0.2-2.4,0.6-3.3,1.3c-0.4,0.3-0.8,0.7-1.1,1l-1.5-2.8c-0.2-0.5-0.5-1-1-1.4
			c-0.9-1-2.3-1.2-3.6-1.2c0,0,0.1,0,0.1-0.1c1.5-1,2.8-2.1,4-3.4c0.1-0.1,0.2-0.2,0.3-0.3l0,0c3.8-0.8,7.7-1.2,11.7-1.1l0.1,0.3
			c0.2,0,0.3,0,0.5,0.1C195.6,49.8,195.9,50.4,196.1,51.1z M184.2,42.7c1.3-0.2,2.7,0.1,3.7,0.9c0,0.1,0,0.2,0,0.4l0,0.6l0.6-0.1
			c3-0.4,4.8,0.2,6.1,2c0.2,0.3,0.4,0.7,0.6,1.1c0.1,0.2,0.2,0.4,0.3,0.6c-3.9-0.2-7.8,0.2-11.6,0.9c0.5-0.8,1-1.8,1-2.8
			c0.1-1-0.4-2.1-1.1-2.8c-0.2-0.2-0.4-0.3-0.6-0.5C183.5,42.9,183.9,42.8,184.2,42.7z M181.1,43.8c0.3-0.1,0.5-0.1,0.7-0.1
			c0.6,0,1.1,0.3,1.3,0.6c0.5,0.5,0.8,1.3,0.8,2c-0.1,1.5-1.1,2.8-1.9,3.7c-1.1,1.2-2.4,2.3-3.9,3.3c-0.3,0.2-0.7,0.4-1,0.4
			c-0.2,0-0.4-0.2-0.7-0.5c-1.1-1.3-1.6-3.2-1.4-5.1c0.1-1,0.5-2,1-2.8c0.7-0.5,1.3-1.2,1.8-1.9l0.2-0.2c0.1,0,0.1,0.1,0.2,0.1
			l-0.1,0l0.2,0.1c0.5,0.4,1.1,0.6,1.8,0.6C180.5,43.9,180.8,43.8,181.1,43.8z M177.6,34.5l0.1-0.2c1.2,0.8,2.2,2.2,2.7,3.8
			c0.5,1.7,0.2,3.7-1.2,4.5c-0.2-0.1-0.4-0.2-0.6-0.4l0.9-1.3l-1.3,0.9c-0.1-0.2-0.2-0.4-0.4-0.6c-0.4-0.7-0.5-1.5-0.7-2.3
			c-0.1-0.3-0.1-0.6-0.2-0.9c-0.1-0.6-0.3-1.1-0.8-1.5c-0.4-0.3-0.9-0.4-1.4-0.5c-2.1-0.3-4.1-1.2-5.9-2.3c-0.3-0.2-0.7-0.5-0.8-0.8
			c-0.1-0.1-0.1-0.3-0.2-0.4C171.2,32.1,174.7,32.8,177.6,34.5z M162.9,27.8c2,0.6,3.5,2.1,3.9,3.9c0,0.1,0.1,0.3,0.1,0.4
			c0,0,0,0.1,0,0.1l-0.4-0.2c-0.4,0.7-0.9,1.5-1.6,1.9c-0.5,0.3-1.1,0.4-1.8,0.5l-3.8,0.7l0.2,1l3.8-0.7c0.7-0.1,1.4-0.3,2.1-0.7
			c0.8-0.5,1.3-1.2,1.7-1.8c0.1,0.2,0.1,0.3,0.2,0.5c0.3,0.5,0.7,0.8,1.1,1.1c0.6,0.4,1.2,0.7,1.8,1.1c-2.1,0.7-3.7,2.7-3.9,4.9
			c-0.1,0.7,0.1,1.5,0.4,2.1c-0.9,0.2-1.8,0.6-2.4,1.1l-0.1-0.2c-0.9,0.3-1.9,0.3-2.7-0.1c0.2-1.1-0.1-2.1-0.4-3.2
			c-0.7-2.5-2-6-5.1-7c-0.2-0.1-0.4-0.1-0.6-0.2c-0.4-0.1-0.8-0.2-1.2-0.4c-0.6-0.4-0.8-1.2-0.7-2c0.1-0.7,0.6-1.4,1.4-2.1l0,0
			l0.4-0.1c0,0.1,0.1,0.1,0.1,0.2l0.9-0.4c0,0,0,0,0,0l0.7-0.2C159.2,27.3,161.2,27.3,162.9,27.8z M153,24.2c0.5-0.3,1-0.5,1.6-0.7
			c1-0.4,2.2-0.3,3,0.2c0.4,0.3,0.6,0.6,0.7,1c0.1,0.9-0.8,1.7-1.6,2.4l-0.6,0.5c-0.4-0.7-0.9-1.4-1.4-1.9c-0.6-0.6-1.3-1-2.1-1.1
			C152.6,24.4,152.8,24.3,153,24.2z M121,29.4c0.3,0,0.6,0,1,0c0.9,0,1.9,0.1,2.8-0.3c1-0.4,1.8-1.5,1.9-2.7
			c0.1-1.1-0.2-2.2-0.9-2.9c0.1-0.3,0.4-0.5,0.6-0.7c0.6-0.4,1.4-0.4,2.1-0.2c0.9,0.3,1.6,0.9,2.4,1.6c0.3,0.3,0.6,0.5,1,0.8
			c0.8,0.6,2.7,1.8,4.5,0.9c1-0.5,1.5-1.5,2-2.4c0.4-0.8,0.8-1.5,1.5-1.9c1.6-1,3.8,0.5,4.5,1c0.2,0.2,0.4,0.3,0.6,0.5
			c1.3,1,2.7,2.1,4.4,2.2c0.6,0,1.2-0.1,1.8-0.3l0.4,0.6c0.6-0.5,1.6,0.2,2.2,0.7c0.5,0.5,1,1.2,1.3,1.9l-0.3,0.3l-0.6-0.6
			c-0.9,0.8-1.5,1.7-1.7,2.6c-0.1,0.7-0.1,1.4,0.2,2l-0.2,0c-0.8-1-1.8-1.8-2.8-2.6c-1.1-0.8-2.1-1.5-2.8-2.6
			c0.5-0.7,0.8-1.5,0.9-2.3l-1-0.1c-0.1,1-0.6,1.9-1.4,2.5c-0.8,0.6-1.8,0.8-2.8,1.1c-0.9,0.2-1.9,0.5-2.8,1
			c-0.6,0.3-0.9,0.7-1.1,1.1c-0.3,0.4-0.5,0.6-1.1,0.7c-0.7,0-1.7,0-2.4-0.6c-0.6-0.4-0.9-1-1.1-1.8c-0.1-0.8,0.1-1.5,0.5-2
			l-0.8-0.6c-0.6,0.7-0.8,1.6-0.8,2.5l-1.2,0.4l0,0.1c-0.2,0-0.4,0-0.5,0c-0.9,0-1.1,0-1.2-0.3c0-0.1-0.1-0.3-0.1-0.4
			c-0.1-0.3-0.1-0.7-0.4-1.1c-0.6-1-1.7-1.7-2.9-1.8l0,1c0.8,0,1.6,0.5,2,1.3c0.1,0.2,0.2,0.5,0.2,0.8c0,0.1,0,0.2,0.1,0.3l-0.2-0.2
			l-5.9,5.4l0.3,0.4c-0.1,0-0.2,0-0.3,0c-0.9,0.1-1.7,0.4-2.5,0.8c0-0.5,0-1-0.1-1.4c-0.3-1.2-0.9-2.2-1.5-3l-0.1-0.1
			c-0.1-0.2-0.2-0.3-0.4-0.5C119.1,29.8,120.1,29.4,121,29.4z M112.9,31.2c0.9-0.2,1.9-0.2,2.9-0.1c0.3,0,0.6,0,0.9,0
			c0.1,0,0.3,0,0.5,0c0.2,0,0.6-0.1,0.8,0c0.1,0.1,0.2,0.2,0.4,0.4l0.1,0.1c0.5,0.8,1.1,1.7,1.3,2.7c0.1,0.6,0.1,1.3-0.1,2
			c-0.4,0.3-0.8,0.7-1,1.2c-1.1,0.6-2.6,0.1-4.1-0.4c-1.1-0.3-2.1-0.7-3.1-0.7c-0.3,0-0.7,0-1,0.1c0.1-0.2,0.1-0.4,0.1-0.6
			c0-0.4-0.1-0.7-0.2-1.1c-0.1-0.2-0.1-0.4-0.1-0.6C110,32.7,111.4,31.5,112.9,31.2z M109.8,37.8c0.4-0.4,0.9-0.5,1.5-0.5
			c0.8,0,1.8,0.3,2.8,0.7c1.4,0.5,2.8,0.9,4,0.7c0,0.2,0,0.5,0,0.7c0.1,1,0.7,1.7,1.2,2.5c0.2,0.3,0.4,0.5,0.5,0.8
			c0,0.1,0.1,0.1,0.1,0.2c-0.8,0.3-1.4,0.8-1.9,1.5c-0.2,0.3-0.4,0.7-0.5,1c-1.6-0.2-3.1-0.9-4.5-1.7c-1.3-0.7-2.5-1.3-3.3-2.4
			C109.1,40.1,108.9,38.6,109.8,37.8z M101.8,39.5c0.7-1.2,2.5-1.1,4.2-1c0.8,0,1.7-0.1,2.5-0.4c-0.4,1.1-0.2,2.4,0.4,3.4
			c-2.4-0.1-4.8,0.7-6.6,2.3c-0.1-0.4-0.2-0.9-0.3-1.3C101.6,41.3,101.3,40.3,101.8,39.5z M101.4,46.5l0.3,0.3l0.3-0.7
			c0.2-0.4,0.3-0.8,0.3-1.2l0.1,0.1c1.7-1.8,4.2-2.8,6.7-2.5l0.1-0.6c0.9,1.1,2.2,1.9,3.5,2.5c1.6,0.8,3.2,1.5,4.9,1.8
			c0,0,0,0.1,0,0.2c0,0.1,0.1,0.3,0.1,0.4c0,0-0.1,0.1-0.1,0.1c-0.3,0.3-0.8,0.4-1.3,0.5l-0.1,0c-2,0.5-3.9,1.4-5.6,2.5
			c-1,0.3-1.9,0.8-2.6,1.5c-1.9-0.1-3.9-0.5-5.5-1.6l-0.3-0.2c-0.4-0.3-0.8-0.6-1.3-0.8C101.2,48.1,101.4,47.3,101.4,46.5z
			 M94.3,42.7c0.5-0.6,1.4-1,2.2-0.8c1.4,0.3,2.5,1.5,3.6,2.8l1.2,1.5l-0.8,0c0,0.8-0.2,1.6-0.6,2.2c-0.3,0-0.6,0-0.9,0.1l0.2,0.7
			c-0.8,0.6-2.1,0.8-2.8,0c-0.2-0.2-0.3-0.5-0.5-0.7c-0.2-0.4-0.5-0.7-0.8-1c-0.2-0.1-0.3-0.2-0.5-0.3c0.4-0.3,0.6-0.7,0.5-1.2
			c0-0.6-0.3-1-0.6-1.4c-0.2-0.2-0.3-0.4-0.4-0.6C93.8,43.5,94.1,43,94.3,42.7z M92.2,48.3c0.3-0.2,0.7-0.3,1.1-0.3
			c0.4,0,0.7,0.1,1,0.3c0.2,0.2,0.4,0.5,0.6,0.8c0.2,0.3,0.4,0.6,0.7,0.9c1.1,1,2.9,1.1,4.2,0c0.1-0.1,0.2-0.2,0.3-0.3
			c0.3,0.2,0.5,0.5,0.6,0.9c0.2,0.8-0.1,1.7-0.3,2.5c-0.1,0.2-0.2,0.5-0.3,0.6c-0.1,0.1-0.4,0-0.6-0.1c-3.4-1-7.2-0.7-10.5,0.6
			l-0.4-0.4c0.1-1.1,0.6-2.3,1.8-3.8C90.8,49.4,91.4,48.7,92.2,48.3z M86.9,52.2l0.9,0l-0.5-0.8c-0.7-1.1-1.4-2.4-1.3-3.8
			c0-0.7,0.4-1.4,0.9-1.9c0.3-0.2,0.7-0.5,1.3-0.5c0.7,0.1,1.3,0.6,2,1.2c0.3,0.3,0.7,0.6,1,0.8c0.1,0.1,0.3,0.1,0.4,0.2
			c-0.9,0.5-1.5,1.3-2.1,2c-1.1,1.4-2.3,3.4-1.8,5.5c-0.3,1-0.2,2.1,0.2,2.9c0.3,0.6,0.7,0.9,1.1,1.1c2,1.2,4.6,1.9,6.3,2.3
			c0.1,0.4,0.2,0.8,0.4,1.2c0.4,0.6,1.1,0.8,1.8,1c0.2,0.1,0.5,0.2,0.7,0.3c0.3,0.2,0.7,0.6,0.7,0.9c0,0.2,0,0.2-0.1,0.2l0.2,0.3
			c-6.8-0.4-13.3-1.2-18.6-4.5c-0.1-0.5,0.4-1.1,0.8-1.7c0.1-0.2,0.3-0.4,0.4-0.5c0.5-0.8,0.6-1.9,0.2-2.6c-0.1-0.1-0.2-0.2-0.2-0.3
			l0.1-0.1l-1.3-0.9C82.2,53,84.5,52.2,86.9,52.2z M49.9,105.3l-0.2-0.5c0.2,0,0.3-0.1,0.5-0.1l0.3-0.1l8-34.8c0.5-2.3,1.2-5,2.8-7
			c1.3-1.5,3.1-2.5,4.5-3.2c4.6-2.3,9.7-3.5,14.8-3.7l0,0.2c0.1,0,0.2,0,0.3,0.2c0.2,0.4,0.1,1.1-0.2,1.6c-0.1,0.2-0.2,0.3-0.4,0.5
			c-0.6,0.8-1.3,1.7-1,2.8l0.1,0.2l0.2,0.1c5.7,3.7,12.7,4.4,20,4.8c14.6,0.9,29.3,1.4,44,1.4l0.2,0c0.3,0.1,0.7,0.2,1.1,0.2
			c0.3,0,0.6-0.1,0.9-0.2c6.4,0,12.7-0.1,19-0.3c3.8-0.1,7.6-0.6,11.3-1c0.8-0.1,1.7-0.2,2.5-0.3c1.1-0.1,2.3-0.2,3.6-0.2
			c1.7,0,3.4-0.1,4.9-0.3c2.6-0.4,5.2-0.8,7.6-1.2c2.2-0.3,4.5-0.7,6.9-1.1c2.8-0.5,4.7-1.4,5.8-3c0.8-1.1,1.1-2.6,0.7-3.9
			c-0.1-0.3-0.2-0.6-0.4-0.9l8.1,2.3c3.2,0.9,7.2,2,9.7,4.9c2.1,2.3,3,5.6,3.9,8.5l9.7,33.8l-0.2,0.4c0.6,0.2,0.8,0.8,0.9,1.2
			c0.2,0.8,0,1.8-0.5,2.4c-0.9,1.2-2.4,1.8-4.1,2.3c-2.4,0.8-5.3,1.7-8.3,2.3c-2.9,0.6-5.8,1-8.7,1.4c-4.5,0.6-8.8,1-13.3,1.4
			c-1.6,0.1-3.2,0.3-4.8,0.4c-15.2,1.5-30.7,2.4-46.1,2.9c-8.9,0.3-16.8,0.3-24.2,0.2c-13.6-0.3-27.5-1.2-40.9-2.2
			c-11.8-0.8-23.9-1.7-35.4-5.3c-1.7-0.6-3.7-1.2-4.7-2.8c-0.5-0.8-0.7-1.9-0.4-2.9C48.8,106.2,49.2,105.6,49.9,105.3z M242.3,120.2
			c-18.2,5.3-37.7,6.2-56.5,6.9c-3.2,0.1-6.4,0.3-9.6,0.4l0,0.5l-0.1-0.5c-18.9,3.1-112.9-0.2-127.7-6.9c-1.1-0.5-2.2-0.9-3.3-1.3
			c-2.2-0.8-4.3-1.7-6.3-3.1c-1.6-1.2-2.3-3.8-1.5-5.7c0.2-0.5,0.6-0.9,1-1.2c1.1-1,2.4-1.8,3.7-2.6c1.7-1,3.7-1.3,5.8-1.6
			c0.3,0,0.5-0.1,0.8-0.1c-0.4,0.4-0.7,0.8-0.9,1.4c-0.4,1.2-0.2,2.7,0.6,3.8c1.2,1.8,3.3,2.6,5.2,3.2c11.6,3.6,23.8,4.5,35.6,5.3
			c13.4,0.9,27.3,1.9,40.9,2.2c2.6,0.1,5.3,0.1,8.1,0.1c5.1,0,10.4-0.1,16.2-0.2c15.3-0.4,30.9-1.4,46.1-2.9
			c1.6-0.2,3.2-0.3,4.8-0.4c4.5-0.4,8.8-0.8,13.4-1.4c2.9-0.4,5.9-0.8,8.8-1.4c3.1-0.7,6-1.6,8.4-2.4c1.8-0.6,3.5-1.2,4.5-2.7
			c0.7-0.9,0.9-2.2,0.6-3.3c-0.1-0.4-0.3-0.8-0.5-1.1c2.1,0.3,4.6,0.9,6.7,2c2,1.1,3.9,3.3,3.7,5.9
			C250.7,116.2,247.8,118.6,242.3,120.2z"/>
	</g>
</g>
</svg>
